<?xml version="1.0" standalone="no"?>
<!DOCTYPE svg PUBLIC "-//W3C//DTD SVG 20010904//EN"
 "http://www.w3.org/TR/2001/REC-SVG-20010904/DTD/svg10.dtd">
<svg version="1.0" xmlns="http://www.w3.org/2000/svg"
 width="596.000000pt" height="596.000000pt" viewBox="0 0 596.000000 596.000000"
 preserveAspectRatio="xMidYMid meet">
<metadata>
Created by potrace 1.11, written by Peter Selinger 2001-2013
</metadata>
<g transform="translate(0.000000,596.000000) scale(0.100000,-0.100000)"
fill="#000000" stroke="none">
<path d="M0 3492 l0 -2328 102 0 101 1 0 2226 0 2226 1401 -2 c771 -1 1415 -5
1431 -9 17 -3 65 -13 107 -21 83 -17 225 -61 246 -77 6 -6 12 -8 12 -4 0 10
201 -97 270 -144 269 -183 472 -449 574 -755 38 -114 58 -232 61 -375 3 -113
0 -149 -20 -260 -21 -118 -91 -288 -167 -407 -24 -37 -47 -73 -51 -80 -4 -6 3
-24 16 -40 66 -80 146 -243 181 -371 38 -139 45 -188 41 -312 -1 -63 -5 -126
-9 -140 -3 -14 -8 -43 -11 -65 -22 -159 -132 -419 -243 -574 -160 -225 -379
-397 -642 -504 -114 -46 -148 -57 -230 -73 -14 -3 -42 -9 -62 -15 -20 -5 -40
-8 -45 -7 -4 1 -28 -2 -53 -7 -25 -5 -364 -9 -755 -11 -390 -1 -714 -2 -718
-3 -4 0 -6 -45 -5 -98 l3 -98 714 -1 c630 0 768 3 871 20 284 46 544 152 760
311 235 172 420 418 523 695 34 93 70 227 81 303 4 20 9 54 13 75 4 20 7 118
8 217 0 156 -3 191 -23 264 -22 80 -61 185 -83 225 -6 11 -23 40 -36 65 -14
25 -35 60 -48 76 -35 48 -36 60 -5 101 68 93 162 318 176 419 2 17 8 55 13 85
23 135 7 392 -34 550 -34 136 -106 306 -182 432 -108 179 -296 382 -463 500
-143 102 -430 239 -550 263 -8 2 -33 7 -55 13 -22 6 -62 13 -88 17 -27 3 -59
9 -70 13 -12 3 -705 8 -1539 9 l-1518 4 0 -2329z"/>
<path d="M417 5410 c-10 -4 -12 -423 -12 -2120 0 -1883 1 -2116 15 -2121 8 -3
53 -5 100 -5 l85 1 1 2012 c1 1107 4 2018 7 2025 3 10 231 13 1153 11 632 -1
1167 -4 1189 -7 273 -36 468 -135 667 -339 159 -162 250 -346 274 -552 12
-106 4 -288 -16 -340 -4 -11 -8 -23 -9 -27 0 -5 -1 -9 -2 -10 0 -2 -2 -10 -4
-18 -8 -36 -40 -119 -65 -170 -23 -46 -109 -173 -129 -190 -3 -3 -22 -22 -40
-43 l-35 -37 58 -57 c90 -89 149 -190 201 -347 46 -137 57 -248 40 -396 -7
-65 -20 -141 -25 -147 -2 -2 -3 -6 -4 -10 -18 -82 -78 -213 -139 -303 -49 -71
-175 -196 -254 -251 -119 -82 -279 -153 -391 -174 -40 -7 -115 -18 -142 -21
-14 -1 -337 -2 -717 -3 l-693 -1 0 -102 0 -103 677 1 c616 2 807 6 845 19 7 2
27 6 43 9 59 10 88 17 107 27 10 5 18 7 18 4 0 -14 203 75 285 125 114 68 270
205 322 281 10 13 22 29 28 34 11 10 41 55 89 132 36 58 102 217 120 288 47
187 53 342 21 526 -22 126 -133 338 -237 453 -20 21 -22 16 53 116 86 116 157
273 184 410 3 14 8 39 11 55 9 43 10 219 1 290 -61 533 -535 996 -1097 1071
-61 8 -2563 12 -2583 4z"/>
<path d="M810 3087 l0 -1924 102 1 101 1 0 1818 0 1817 21 5 c12 2 440 3 951
3 1001 -1 993 -1 1112 -54 169 -74 330 -240 374 -387 21 -68 23 -85 22 -192
-1 -96 -8 -142 -37 -230 -11 -36 -30 -73 -58 -113 -103 -150 -283 -251 -478
-268 -64 -5 -205 -8 -225 -4 -5 1 -14 2 -20 0 -23 -4 -246 -2 -251 3 -3 3 -12
3 -19 1 -22 -9 -105 -9 -105 -1 0 5 -4 6 -9 3 -13 -8 -180 -11 -187 -3 -3 3
-12 3 -19 1 -22 -9 -105 -9 -105 -1 0 5 -4 6 -9 3 -13 -8 -180 -11 -187 -3 -3
3 -12 3 -19 1 -22 -9 -105 -9 -105 -1 0 5 -4 5 -10 2 -5 -3 -34 -6 -65 -6
l-56 -1 3 -101 3 -101 730 -1 c402 -1 741 -5 754 -8 114 -29 208 -65 238 -91
7 -6 30 -24 51 -41 77 -60 149 -173 176 -279 14 -52 15 -242 3 -263 -3 -4 -8
-26 -11 -48 -17 -107 -125 -258 -239 -334 -57 -39 -145 -79 -189 -86 -17 -3
-34 -8 -38 -10 -24 -15 -189 -19 -797 -19 l-683 -1 0 -101 0 -101 697 0 c384
0 716 4 738 8 22 4 57 10 77 13 49 8 152 43 208 72 218 111 381 309 424 516 3
13 8 34 11 48 15 58 15 285 -1 359 -42 202 -150 336 -350 435 l-66 32 64 41
c61 40 139 109 187 167 37 45 101 148 101 163 0 7 5 13 12 13 6 0 9 3 5 6 -3
4 0 19 9 35 8 16 14 32 14 36 1 5 6 26 12 48 18 65 20 84 24 205 9 283 -101
484 -381 698 -5 4 -37 21 -70 37 -33 17 -62 32 -65 35 -5 6 -126 45 -175 57
-16 4 -517 9 -1112 10 l-1083 4 0 -1924z"/>
<path d="M1219 4600 c-1 -3 -2 -777 -3 -1721 l-1 -1715 100 0 100 1 1 1613 c1
887 4 1615 8 1619 8 8 1429 8 1479 -1 118 -19 200 -114 190 -221 -11 -113 -67
-181 -167 -202 -17 -3 -338 -7 -713 -7 l-683 -1 0 -102 0 -102 718 3 c764 3
729 1 845 50 73 32 150 117 176 198 47 142 26 332 -43 404 -6 6 -20 22 -32 35
-63 73 -162 128 -259 146 -38 7 -1715 10 -1716 3z"/>
<path d="M1530 3070 l0 -100 33 0 c17 -1 336 -2 707 -4 371 -1 682 -5 690 -8
103 -33 131 -71 131 -179 0 -62 -27 -121 -68 -149 -71 -49 -90 -50 -815 -50
l-678 0 0 -102 0 -103 677 2 c629 1 771 5 794 19 5 3 21 8 35 10 51 9 120 51
172 104 58 60 91 175 86 301 -4 97 -34 179 -87 236 -40 44 -132 95 -197 109
-19 4 -360 9 -757 11 l-723 4 0 -101z"/>
<path d="M4935 2165 c-2 -5 -3 -51 -2 -102 l1 -92 505 0 506 1 1 99 c1 54 -2
100 -5 100 -3 1 -230 2 -505 3 -326 1 -500 -2 -501 -9z"/>
<path d="M4933 1670 l-1 -100 26 -1 c36 -1 907 -1 952 0 l35 1 0 100 1 100
-506 0 -506 0 -1 -100z"/>
<path d="M4939 1365 c-1 0 -3 -44 -5 -97 -2 -67 1 -98 9 -101 7 -2 235 -3 507
-3 l495 1 0 98 c0 59 -4 97 -10 98 -7 1 -768 4 -996 4z"/>
<path d="M103 802 c-24 -2 -43 -8 -44 -15 -1 -16 -1 -553 0 -594 l1 -32 177 0
c192 0 251 8 300 42 91 62 90 210 -3 267 l-34 21 30 26 c37 31 52 58 57 102
10 92 -59 164 -172 177 -49 7 -255 10 -312 6z m304 -147 c26 -18 30 -52 9 -81
-12 -16 -29 -20 -103 -22 l-89 -4 -2 60 c-2 70 -3 69 97 65 36 -2 74 -9 88
-18z m-24 -234 c41 -1 71 -36 63 -75 -10 -48 -29 -56 -132 -56 l-92 0 0 64 c1
72 2 73 93 69 22 -1 52 -2 68 -2z"/>
<path d="M1010 800 l-54 -5 0 -200 c1 -222 5 -262 35 -319 44 -85 116 -119
249 -119 108 0 162 18 217 72 57 57 67 108 68 354 l2 217 -46 1 c-56 1 -115
-2 -119 -6 -2 -2 -4 -97 -4 -211 0 -130 -5 -218 -11 -234 -11 -23 -42 -58 -56
-61 -33 -8 -91 -3 -113 9 -47 27 -52 52 -55 267 -1 110 -2 207 -3 216 0 20
-34 26 -110 19z"/>
<path d="M1965 800 l-59 -5 0 -315 0 -315 175 -1 c186 -1 228 6 302 53 135 85
170 320 67 461 -48 67 -126 107 -225 118 -72 8 -191 10 -260 4z m286 -153
c117 -49 123 -274 8 -330 -36 -17 -159 -30 -176 -18 -11 8 -12 354 0 362 15
11 132 2 168 -14z"/>
<path d="M3093 794 c-148 -39 -234 -161 -227 -323 3 -79 6 -95 33 -154 26 -58
94 -117 162 -142 79 -28 242 -26 323 4 14 6 26 8 26 4 0 -3 9 2 20 12 18 17
20 30 19 171 -1 124 -4 154 -15 155 -8 0 -61 1 -119 1 -58 0 -111 -1 -118 -1
-11 -1 -15 -48 -8 -107 1 -6 21 -9 51 -7 28 2 51 0 51 -4 7 -41 4 -113 -5
-116 -6 -2 -39 -5 -72 -5 -123 0 -178 61 -178 198 -1 137 52 195 176 193 38
-1 75 -6 83 -13 8 -7 15 -9 15 -5 0 4 12 0 26 -9 14 -10 30 -16 35 -14 5 2 21
27 34 56 l24 53 -32 19 c-18 11 -48 25 -67 31 -56 17 -180 19 -237 3z"/>
<path d="M3890 800 l-65 -5 0 -315 0 -315 79 -3 c44 -2 82 1 85 7 3 5 6 147 6
316 0 354 10 324 -105 315z"/>
<path d="M4384 802 l-50 -3 -1 -67 0 -68 93 1 c57 0 95 -3 97 -10 1 -5 2 -119
2 -252 l-1 -243 36 -1 c19 -1 40 0 45 1 6 1 28 2 50 1 l40 -1 0 246 c0 135 2
248 5 252 3 4 46 7 95 7 l90 0 0 68 1 67 -41 0 c-22 1 -123 2 -225 3 -102 1
-208 1 -236 -1z"/>
<path d="M5183 802 l-52 -3 76 -112 c42 -62 103 -151 135 -199 l58 -86 -1 -94
c0 -51 0 -105 0 -121 l1 -28 85 2 85 1 0 122 0 123 81 119 c45 65 106 154 135
197 30 42 54 78 54 80 0 1 -30 1 -67 0 -38 -1 -81 -2 -98 -3 -27 0 -37 -11
-109 -125 -43 -68 -82 -122 -86 -120 -3 2 -40 58 -81 123 l-74 120 -45 3 c-25
2 -69 3 -97 1z"/>
</g>
</svg>
