<svg width="298" height="284" viewBox="0 0 298 284" fill="none" xmlns="http://www.w3.org/2000/svg">
<path d="M154.688 151.734C154.688 148.078 153.562 145.641 151.312 144.422C149.156 143.203 145.969 142.594 141.75 142.594H76.5V132.469H141.75C157.125 132.469 164.812 138.891 164.812 151.734C164.812 158.953 162.703 164.156 158.484 167.344C154.266 170.531 148.688 172.125 141.75 172.125H76.5V162H141.75C150.375 162 154.688 158.578 154.688 151.734ZM70.875 232.875H60.75V60.75H141.75C148.125 60.75 153.562 62.7188 158.062 66.6562C162.562 70.5 164.812 75.3281 164.812 81.1406C164.812 88.8281 162.703 94.4062 158.484 97.875C154.266 101.25 148.688 102.938 141.75 102.938H76.5V92.8125H141.75C150.375 92.8125 154.688 88.9219 154.688 81.1406C154.688 77.9531 153.469 75.4688 151.031 73.6875C148.594 71.8125 145.5 70.875 141.75 70.875H70.875V232.875ZM76.5 113.062H141.75C151.031 113.062 158.859 110.297 165.234 104.766C171.703 99.1406 174.938 91.2656 174.938 81.1406C174.938 72.9844 171.562 65.8594 164.812 59.7656C158.156 53.6719 150.469 50.625 141.75 50.625H50.625V232.875H40.5V40.5H141.75C153.281 40.5 163.359 44.5781 171.984 52.7344C180.703 60.7969 185.062 70.2656 185.062 81.1406C185.062 89.6719 183.047 97.125 179.016 103.5C175.078 109.875 169.734 114.797 162.984 118.266C177.703 123.516 185.062 134.203 185.062 150.328C185.062 163.078 180.844 173.297 172.406 180.984C163.969 188.578 153.75 192.375 141.75 192.375H76.5V182.25H141.75C151.031 182.25 158.859 179.484 165.234 173.953C171.703 168.328 174.938 160.453 174.938 150.328C174.938 143.484 172.5 137.438 167.625 132.188C162.75 126.938 155.578 123.891 146.109 123.047C145.172 123.141 143.719 123.188 141.75 123.188H76.5V113.062ZM205.312 81.1406C205.312 94.2656 200.672 106.125 191.391 116.719C200.672 127.031 205.312 138.234 205.312 150.328C205.312 162.047 202.359 172.734 196.453 182.391C190.641 191.953 182.859 199.406 173.109 204.75C163.453 210 153 212.625 141.75 212.625H76.5V202.5H141.75C156.375 202.5 168.938 197.625 179.438 187.875C189.938 178.031 195.188 165.516 195.188 150.328C195.188 144.891 193.781 138.891 190.969 132.328C188.25 125.672 184.453 120.609 179.578 117.141C189.984 107.391 195.188 95.3906 195.188 81.1406C195.188 67.4531 189.844 55.5938 179.156 45.5625C168.469 35.4375 156 30.375 141.75 30.375H30.375V232.875H20.25V20.25H141.75C152.906 20.25 163.359 23.0156 173.109 28.5469C182.953 33.9844 190.781 41.4375 196.594 50.9062C202.406 60.2812 205.312 70.3594 205.312 81.1406ZM202.922 117.281C211.266 106.125 215.438 94.0781 215.438 81.1406C215.438 68.4844 212.062 56.7188 205.312 45.8438C198.656 34.875 189.656 26.2031 178.312 19.8281C166.969 13.3594 154.781 10.125 141.75 10.125H10.125V232.875H0V0H141.75C156.562 0 170.391 3.65625 183.234 10.9688C196.172 18.2812 206.438 28.2188 214.031 40.7812C221.719 53.25 225.562 66.7031 225.562 81.1406C225.562 94.9219 221.672 107.016 213.891 117.422C221.672 128.203 225.562 139.172 225.562 150.328C225.562 162.891 223.312 174.422 218.812 184.922C214.312 195.328 208.219 204 200.531 210.938C192.938 217.875 184.078 223.266 173.953 227.109C163.828 230.953 153.094 232.875 141.75 232.875H76.5V222.75H141.75C151.594 222.75 161.016 220.922 170.016 217.266C179.016 213.516 186.844 208.453 193.5 202.078C200.156 195.703 205.453 188.016 209.391 179.016C213.422 170.016 215.438 160.453 215.438 150.328C215.438 145.828 214.359 140.438 212.203 134.156C210.141 127.781 207.047 122.156 202.922 117.281Z" fill="#EDF10E"/>
<path d="M246.656 192.375V182.25H297.281V192.375H246.656ZM246.656 212.625V202.5H297.281V212.625H246.656ZM246.656 232.875V222.75H297.281V232.875H246.656Z" fill="#EDF10E"/>
<path d="M24.435 266.395C26.325 266.935 27.78 267.895 28.8 269.275C29.82 270.625 30.33 272.275 30.33 274.225C30.33 275.995 29.865 277.54 28.935 278.86C28.005 280.18 26.67 281.2 24.93 281.92C23.22 282.64 21.195 283 18.855 283H2.88V250.96H18.45C21.81 250.96 24.48 251.71 26.46 253.21C28.44 254.71 29.43 256.735 29.43 259.285C29.43 260.935 28.995 262.39 28.125 263.65C27.255 264.91 26.025 265.825 24.435 266.395ZM11.115 263.515H17.01C18.57 263.515 19.71 263.275 20.43 262.795C21.15 262.315 21.51 261.55 21.51 260.5C21.51 259.42 21.135 258.625 20.385 258.115C19.665 257.605 18.54 257.35 17.01 257.35H11.115V263.515ZM17.865 276.61C19.485 276.61 20.64 276.355 21.33 275.845C22.05 275.335 22.41 274.48 22.41 273.28C22.41 272.05 22.065 271.18 21.375 270.67C20.685 270.16 19.515 269.905 17.865 269.905H11.115V276.61H17.865Z" fill="#1B1B19"/>
<path d="M62.0617 283.405C57.3817 283.405 53.8417 282.235 51.4417 279.895C49.0417 277.525 47.8417 274.06 47.8417 269.5V250.96H56.0767V269.815C56.0767 272.125 56.5867 273.895 57.6067 275.125C58.6567 276.355 60.1417 276.97 62.0617 276.97C63.9517 276.97 65.4067 276.355 66.4267 275.125C67.4467 273.865 67.9567 272.095 67.9567 269.815V250.96H76.2817V269.5C76.2817 274 75.0517 277.45 72.5917 279.85C70.1617 282.22 66.6517 283.405 62.0617 283.405Z" fill="#1B1B19"/>
<path d="M95.3146 250.96H108.41C111.95 250.96 114.995 251.605 117.545 252.895C120.125 254.155 122.09 255.985 123.44 258.385C124.82 260.785 125.51 263.635 125.51 266.935C125.51 270.265 124.835 273.145 123.485 275.575C122.135 277.975 120.17 279.82 117.59 281.11C115.04 282.37 111.98 283 108.41 283H95.3146V250.96ZM107.825 276.25C110.945 276.25 113.27 275.485 114.8 273.955C116.36 272.395 117.14 270.055 117.14 266.935C117.14 260.785 114.035 257.71 107.825 257.71H103.775V276.25H107.825Z" fill="#1B1B19"/>
<path d="M172.411 264.91V280.975C170.701 281.755 168.781 282.355 166.651 282.775C164.551 283.195 162.391 283.405 160.171 283.405C156.691 283.405 153.661 282.745 151.081 281.425C148.531 280.105 146.566 278.215 145.186 275.755C143.806 273.265 143.116 270.325 143.116 266.935C143.116 263.635 143.806 260.755 145.186 258.295C146.566 255.805 148.516 253.9 151.036 252.58C153.556 251.23 156.496 250.555 159.856 250.555C162.166 250.555 164.341 250.855 166.381 251.455C168.451 252.055 170.131 252.88 171.421 253.93L168.766 259.915C167.296 258.955 165.871 258.265 164.491 257.845C163.141 257.395 161.686 257.17 160.126 257.17C157.276 257.17 155.146 257.98 153.736 259.6C152.356 261.19 151.666 263.635 151.666 266.935C151.666 270.355 152.386 272.89 153.826 274.54C155.296 276.19 157.546 277.015 160.576 277.015C161.986 277.015 163.396 276.865 164.806 276.565V270.625H159.226V264.91H172.411Z" fill="#1B1B19"/>
<path d="M191.265 250.96H199.725V283H191.265V250.96Z" fill="#1B1B19"/>
<path d="M226.203 257.8H216.663V250.96H244.293V257.8H234.753V283H226.203V257.8Z" fill="#1B1B19"/>
<path d="M278.453 270.76V283H269.948V270.715L256.493 250.96H266.033L274.133 263.74L282.368 250.96H291.998L278.453 270.76Z" fill="#1B1B19"/>
</svg>
